<svg xmlns="http://www.w3.org/2000/svg" width="782" height="250" viewBox="0 0 782 250"><rect width="100%" height="100%" fill="#DDDDDD"/><path fill="#999999" d="M158.325 87.405h51.95v5.56q0 2.5-.52 4.03-.52 1.54-1.04 2.58l-28.49 58.65q-.89 1.82-2.5 3.1-1.61 1.27-4.32 1.27h-9.3l29.06-57.46q.99-1.77 1.95-3.25.97-1.48 2.16-2.83h-35.98q-1.2 0-2.08-.89-.89-.88-.89-2.08v-8.68Zm85.65 65.99q3.17 0 5.56-.91 2.39-.91 4.03-2.53 1.64-1.61 2.47-3.84.83-2.24.83-4.84 0-6.19-3.43-9.36-3.43-3.17-9.46-3.17-6.03 0-9.47 3.17-3.43 3.17-3.43 9.36 0 2.6.83 4.84.84 2.23 2.47 3.84 1.64 1.62 4.03 2.53 2.4.91 5.57.91Zm0-57.15q-2.86 0-4.94.88-2.08.89-3.46 2.37t-2.03 3.4q-.65 1.93-.65 4.06 0 2.24.55 4.34.54 2.11 1.84 3.75 1.3 1.63 3.44 2.62 2.13.99 5.25.99t5.25-.99q2.13-.99 3.43-2.62 1.3-1.64 1.85-3.75.54-2.1.54-4.34 0-2.13-.67-4.06-.68-1.92-2.03-3.4-1.35-1.48-3.43-2.37-2.08-.88-4.94-.88Zm12.69 27.14q6.86 2.24 10.14 6.84 3.27 4.6 3.27 11.26 0 4.99-1.9 9.05-1.89 4.05-5.33 6.91-3.43 2.86-8.24 4.42-4.81 1.56-10.63 1.56-5.83 0-10.64-1.56-4.81-1.56-8.24-4.42-3.43-2.86-5.33-6.91-1.9-4.06-1.9-9.05 0-6.66 3.28-11.26t10.14-6.84q-5.46-2.29-8.19-6.5-2.73-4.21-2.73-10.14 0-4.26 1.74-7.95 1.74-3.7 4.86-6.43 3.12-2.73 7.47-4.26 4.34-1.53 9.54-1.53 5.2 0 9.54 1.53 4.34 1.53 7.46 4.26 3.12 2.73 4.86 6.43 1.75 3.69 1.75 7.95 0 5.93-2.73 10.14-2.73 4.21-8.19 6.5Zm49.19 27.25h19.29q2.08 0 3.3 1.17 1.22 1.17 1.22 3.09v7.7h-51.58v-4.26q0-1.3.55-2.73.54-1.43 1.74-2.58l22.83-22.88q2.86-2.91 5.12-5.56 2.26-2.65 3.77-5.25 1.51-2.6 2.31-5.28.81-2.68.81-5.64 0-2.71-.78-4.76-.78-2.06-2.21-3.46t-3.43-2.11q-2.01-.7-4.5-.7-2.29 0-4.24.65-1.95.65-3.46 1.82t-2.55 2.73q-1.04 1.56-1.56 3.43-.88 2.4-2.28 3.18-1.41.78-4.06.36l-6.76-1.2q.78-5.4 3.02-9.49 2.23-4.08 5.59-6.81 3.35-2.73 7.69-4.11 4.34-1.37 9.34-1.37 5.2 0 9.51 1.53 4.32 1.53 7.39 4.34 3.06 2.81 4.78 6.76 1.72 3.95 1.72 8.79 0 4.16-1.23 7.7-1.22 3.53-3.27 6.76-2.06 3.22-4.81 6.24-2.76 3.01-5.77 6.13l-16.96 17.32q2.45-.73 4.87-1.12 2.41-.39 4.6-.39Zm108.57-5.25-6.81 6.71-17.63-17.63-17.78 17.73-6.81-6.71 17.78-17.83-16.95-16.96 6.76-6.76 16.95 16.96 16.85-16.85 6.86 6.76-16.9 16.9 17.68 17.68Zm62.61 5.25h19.29q2.08 0 3.31 1.17 1.22 1.17 1.22 3.09v7.7h-51.59v-4.26q0-1.3.55-2.73t1.74-2.58l22.83-22.88q2.86-2.91 5.12-5.56 2.26-2.65 3.77-5.25 1.51-2.6 2.32-5.28.8-2.68.8-5.64 0-2.71-.78-4.76-.78-2.06-2.21-3.46t-3.43-2.11q-2-.7-4.5-.7-2.29 0-4.24.65-1.95.65-3.45 1.82-1.51 1.17-2.55 2.73-1.04 1.56-1.56 3.43-.89 2.4-2.29 3.18-1.4.78-4.06.36l-6.76-1.2q.78-5.4 3.02-9.49 2.24-4.08 5.59-6.81 3.35-2.73 7.7-4.11 4.34-1.37 9.33-1.37 5.2 0 9.52 1.53 4.31 1.53 7.38 4.34 3.07 2.81 4.78 6.76 1.72 3.95 1.72 8.79 0 4.16-1.22 7.7-1.22 3.53-3.28 6.76-2.05 3.22-4.81 6.24-2.75 3.01-5.77 6.13l-16.95 17.32q2.44-.73 4.86-1.12 2.42-.39 4.6-.39Zm52.37-51.58-2.66 15.65q2.5-.52 4.79-.76 2.29-.23 4.42-.23 5.93 0 10.45 1.77t7.59 4.89q3.07 3.12 4.63 7.3 1.56 4.19 1.56 9.02 0 5.98-2.11 10.92-2.1 4.94-5.85 8.45-3.74 3.51-8.86 5.44-5.12 1.92-11.16 1.92-3.53 0-6.7-.73-3.18-.72-5.96-1.95-2.78-1.22-5.15-2.8-2.36-1.59-4.23-3.36l3.95-5.46q1.25-1.77 3.27-1.77 1.3 0 2.66.84 1.35.83 3.09 1.82 1.74.98 4.11 1.82 2.36.83 5.69.83 3.54 0 6.24-1.15 2.71-1.14 4.5-3.19 1.79-2.06 2.7-4.89.91-2.84.91-6.16 0-6.14-3.56-9.6t-10.53-3.46q-5.35 0-10.97 1.98l-8.01-2.29 6.24-36.5h37.13v5.46q0 2.75-1.72 4.47-1.71 1.72-5.82 1.72h-20.64Zm94.27 25.94q0 9.83-2.1 17.09-2.11 7.25-5.83 11.98t-8.79 7.05q-5.07 2.31-10.94 2.31-5.88 0-10.9-2.31-5.01-2.32-8.71-7.05-3.69-4.73-5.77-11.98-2.08-7.26-2.08-17.09 0-9.88 2.08-17.1 2.08-7.23 5.77-11.96 3.7-4.74 8.71-7.05 5.02-2.31 10.9-2.31 5.87 0 10.94 2.31 5.07 2.31 8.79 7.05 3.72 4.73 5.83 11.96 2.1 7.22 2.1 17.1Zm-13.26 0q0-8.16-1.19-13.52-1.2-5.35-3.2-8.52-2-3.18-4.6-4.45-2.6-1.27-5.41-1.27-2.76 0-5.33 1.27-2.58 1.27-4.55 4.45-1.98 3.17-3.15 8.52-1.17 5.36-1.17 13.52 0 8.17 1.17 13.52 1.17 5.36 3.15 8.53 1.97 3.17 4.55 4.45 2.57 1.27 5.33 1.27 2.81 0 5.41-1.27 2.6-1.28 4.6-4.45 2-3.17 3.2-8.53 1.19-5.35 1.19-13.52Z"/></svg>